<svg xmlns="http://www.w3.org/2000/svg" xmlns:xlink="http://www.w3.org/1999/xlink" width="500" zoomAndPan="magnify" viewBox="0 0 375 187.499995" height="250" preserveAspectRatio="xMidYMid meet" version="1.0"><defs><g/></defs><g fill="#000000" fill-opacity="1"><g transform="translate(6.464757, 115.776821)"><g><path d="M 57.5625 7.890625 C 52.382812 7.890625 47.4375 6.863281 42.71875 4.8125 C 38.007812 2.769531 33.820312 -0.125 30.15625 -3.875 C 26.488281 -7.632812 23.585938 -12.140625 21.453125 -17.390625 C 19.328125 -22.648438 18.265625 -28.445312 18.265625 -34.78125 C 18.265625 -40.707031 19.078125 -46.753906 20.703125 -52.921875 C 22.328125 -59.097656 24.5625 -65.109375 27.40625 -70.953125 C 22.476562 -72.453125 17.925781 -74.304688 13.75 -76.515625 C 9.582031 -78.722656 6.25 -81.265625 3.75 -84.140625 C 1.25 -87.023438 0 -90.21875 0 -93.71875 C 0 -96.550781 0.414062 -99.007812 1.25 -101.09375 C 2.082031 -103.1875 3.0625 -104.816406 4.1875 -105.984375 C 5.3125 -107.148438 6.25 -107.734375 7 -107.734375 C 8.007812 -107.734375 8.515625 -106.941406 8.515625 -105.359375 C 8.515625 -101.765625 9.535156 -98.300781 11.578125 -94.96875 C 13.617188 -91.632812 16.429688 -88.609375 20.015625 -85.890625 C 23.609375 -83.179688 27.613281 -80.910156 32.03125 -79.078125 C 35.945312 -85.421875 40.488281 -91.113281 45.65625 -96.15625 C 50.832031 -101.207031 56.40625 -105.210938 62.375 -108.171875 C 68.34375 -111.128906 74.492188 -112.609375 80.828125 -112.609375 C 86.753906 -112.609375 91.695312 -111.066406 95.65625 -107.984375 C 99.613281 -104.898438 101.59375 -100.769531 101.59375 -95.59375 C 101.59375 -92.59375 100.507812 -89.421875 98.34375 -86.078125 C 96.175781 -82.742188 93.023438 -79.640625 88.890625 -76.765625 C 84.765625 -73.890625 79.675781 -71.550781 73.625 -69.75 C 67.582031 -67.957031 60.679688 -67.0625 52.921875 -67.0625 C 49.585938 -67.0625 46.085938 -67.3125 42.421875 -67.8125 C 40.078125 -62.226562 38.28125 -56.578125 37.03125 -50.859375 C 35.78125 -45.148438 35.15625 -39.957031 35.15625 -35.28125 C 35.15625 -27.445312 36.34375 -21.023438 38.71875 -16.015625 C 41.101562 -11.015625 44.066406 -7.320312 47.609375 -4.9375 C 51.148438 -2.5625 54.632812 -1.375 58.0625 -1.375 C 61.5625 -1.375 64.9375 -2.226562 68.1875 -3.9375 C 71.445312 -5.644531 74.347656 -8 76.890625 -11 C 79.429688 -14.007812 81.453125 -17.492188 82.953125 -21.453125 C 84.453125 -25.421875 85.203125 -29.695312 85.203125 -34.28125 C 85.203125 -39.125 84.140625 -42.585938 82.015625 -44.671875 C 79.890625 -46.753906 77.535156 -47.796875 74.953125 -47.796875 C 70.941406 -47.796875 68.082031 -45.875 66.375 -42.03125 C 64.664062 -38.195312 63.8125 -33.320312 63.8125 -27.40625 C 63.8125 -26.070312 63.226562 -25.238281 62.0625 -24.90625 C 60.894531 -24.570312 59.5625 -24.78125 58.0625 -25.53125 C 56.5625 -26.28125 55.222656 -27.550781 54.046875 -29.34375 C 52.878906 -31.132812 52.296875 -33.488281 52.296875 -36.40625 C 52.296875 -39.664062 53.210938 -42.710938 55.046875 -45.546875 C 56.890625 -48.378906 59.394531 -50.648438 62.5625 -52.359375 C 65.726562 -54.078125 69.273438 -54.9375 73.203125 -54.9375 C 77.117188 -54.9375 80.453125 -54.160156 83.203125 -52.609375 C 85.960938 -51.066406 88.175781 -49.085938 89.84375 -46.671875 C 91.507812 -44.253906 92.738281 -41.6875 93.53125 -38.96875 C 94.320312 -36.257812 94.71875 -33.78125 94.71875 -31.53125 C 94.71875 -27.445312 93.882812 -23.109375 92.21875 -18.515625 C 90.550781 -13.929688 88.109375 -9.632812 84.890625 -5.625 C 81.679688 -1.625 77.78125 1.625 73.1875 4.125 C 68.601562 6.632812 63.394531 7.890625 57.5625 7.890625 Z M 45.921875 -75.453125 C 47.085938 -75.285156 48.234375 -75.160156 49.359375 -75.078125 C 50.484375 -74.992188 51.585938 -74.953125 52.671875 -74.953125 C 60.429688 -74.953125 67.3125 -75.972656 73.3125 -78.015625 C 79.320312 -80.054688 84.015625 -82.703125 87.390625 -85.953125 C 90.773438 -89.210938 92.46875 -92.632812 92.46875 -96.21875 C 92.46875 -98.800781 91.570312 -100.925781 89.78125 -102.59375 C 87.988281 -104.269531 85.128906 -105.109375 81.203125 -105.109375 C 76.367188 -105.109375 71.78125 -103.769531 67.4375 -101.09375 C 63.101562 -98.425781 59.117188 -94.835938 55.484375 -90.328125 C 51.859375 -85.828125 48.671875 -80.867188 45.921875 -75.453125 Z M 45.921875 -75.453125 "/></g></g></g><g fill="#000000" fill-opacity="1"><g transform="translate(111.809748, 115.776821)"><g><path d="M 23.90625 0 C 21.226562 0 18.867188 -0.8125 16.828125 -2.4375 C 14.785156 -4.0625 13.203125 -6.207031 12.078125 -8.875 C 10.953125 -11.550781 10.390625 -14.347656 10.390625 -17.265625 C 10.390625 -19.929688 10.804688 -22.578125 11.640625 -25.203125 C 12.472656 -27.835938 13.285156 -30.195312 14.078125 -32.28125 C 14.867188 -34.363281 15.265625 -35.78125 15.265625 -36.53125 C 15.265625 -37.695312 14.703125 -38.71875 13.578125 -39.59375 C 12.453125 -40.476562 11.050781 -41.335938 9.375 -42.171875 C 7.707031 -43.003906 6.039062 -43.941406 4.375 -44.984375 C 2.707031 -46.023438 1.3125 -47.335938 0.1875 -48.921875 C -0.9375 -50.503906 -1.5 -52.46875 -1.5 -54.8125 C -1.5 -57.644531 -0.75 -59.75 0.75 -61.125 C 2.25 -62.5 3.664062 -63.1875 5 -63.1875 C 6.164062 -63.1875 7.351562 -62.8125 8.5625 -62.0625 C 9.78125 -61.3125 10.785156 -59.976562 11.578125 -58.0625 C 12.367188 -56.144531 12.765625 -53.390625 12.765625 -49.796875 C 14.929688 -48.460938 17.222656 -47.484375 19.640625 -46.859375 C 22.054688 -46.234375 24.304688 -45.628906 26.390625 -45.046875 C 28.484375 -44.460938 30.175781 -43.628906 31.46875 -42.546875 C 32.757812 -41.460938 33.40625 -39.707031 33.40625 -37.28125 C 33.40625 -35.78125 32.96875 -34.195312 32.09375 -32.53125 C 31.21875 -30.863281 30.21875 -29.03125 29.09375 -27.03125 C 27.96875 -25.03125 26.96875 -22.878906 26.09375 -20.578125 C 25.21875 -18.285156 24.78125 -15.765625 24.78125 -13.015625 C 24.78125 -11.847656 24.96875 -10.847656 25.34375 -10.015625 C 25.71875 -9.179688 26.363281 -8.765625 27.28125 -8.765625 C 30.03125 -8.765625 33.320312 -11.890625 37.15625 -18.140625 C 41 -24.398438 45.171875 -32.742188 49.671875 -43.171875 C 50.585938 -45.335938 51.671875 -46.523438 52.921875 -46.734375 C 54.179688 -46.941406 55.164062 -46.441406 55.875 -45.234375 C 56.582031 -44.023438 56.5625 -42.296875 55.8125 -40.046875 C 54.050781 -34.785156 52.023438 -29.753906 49.734375 -24.953125 C 47.441406 -20.160156 44.914062 -15.882812 42.15625 -12.125 C 39.40625 -8.375 36.488281 -5.414062 33.40625 -3.25 C 30.320312 -1.082031 27.15625 0 23.90625 0 Z M 23.90625 0 "/></g></g></g><g fill="#000000" fill-opacity="1"><g transform="translate(156.850354, 115.776821)"><g><path d="M 18.765625 0 C 13.179688 0 8.550781 -2.0625 4.875 -6.1875 C 1.207031 -10.320312 -0.625 -15.972656 -0.625 -23.140625 C -0.625 -27.398438 0.0390625 -31.613281 1.375 -35.78125 C 2.707031 -39.957031 4.5625 -43.796875 6.9375 -47.296875 C 9.320312 -50.796875 12.160156 -53.585938 15.453125 -55.671875 C 18.742188 -57.765625 22.3125 -58.8125 26.15625 -58.8125 C 29.238281 -58.8125 31.78125 -57.953125 33.78125 -56.234375 C 35.78125 -54.523438 37.320312 -52.460938 38.40625 -50.046875 C 39.832031 -51.796875 41.546875 -53.128906 43.546875 -54.046875 C 45.546875 -54.972656 47.460938 -55.457031 49.296875 -55.5 C 51.128906 -55.539062 52.523438 -55.203125 53.484375 -54.484375 C 54.453125 -53.773438 54.597656 -52.671875 53.921875 -51.171875 C 53.003906 -49.085938 52.191406 -46.566406 51.484375 -43.609375 C 50.773438 -40.648438 50.191406 -37.601562 49.734375 -34.46875 C 49.273438 -31.34375 48.921875 -28.441406 48.671875 -25.765625 C 48.421875 -23.097656 48.296875 -20.929688 48.296875 -19.265625 C 48.296875 -15.179688 48.585938 -12.410156 49.171875 -10.953125 C 49.753906 -9.492188 50.460938 -8.765625 51.296875 -8.765625 C 53.972656 -8.765625 57.019531 -11.765625 60.4375 -17.765625 C 63.851562 -23.773438 67.734375 -32.242188 72.078125 -43.171875 C 72.992188 -45.335938 74.078125 -46.546875 75.328125 -46.796875 C 76.578125 -47.046875 77.554688 -46.546875 78.265625 -45.296875 C 78.972656 -44.046875 78.953125 -42.296875 78.203125 -40.046875 C 75.535156 -32.035156 72.550781 -25.023438 69.25 -19.015625 C 65.957031 -13.015625 62.597656 -8.34375 59.171875 -5 C 55.753906 -1.664062 52.503906 0 49.421875 0 C 45.503906 0 42.3125 -1.019531 39.84375 -3.0625 C 37.382812 -5.101562 35.570312 -7.878906 34.40625 -11.390625 C 32.570312 -8.210938 30.363281 -5.519531 27.78125 -3.3125 C 25.195312 -1.101562 22.191406 0 18.765625 0 Z M 15.640625 -16.765625 C 15.640625 -14.515625 16.054688 -12.617188 16.890625 -11.078125 C 17.722656 -9.535156 18.804688 -8.765625 20.140625 -8.765625 C 21.890625 -8.765625 23.679688 -9.992188 25.515625 -12.453125 C 27.359375 -14.910156 29.03125 -18.285156 30.53125 -22.578125 C 32.03125 -26.878906 33.070312 -31.78125 33.65625 -37.28125 C 34.15625 -41.957031 33.757812 -45.171875 32.46875 -46.921875 C 31.175781 -48.671875 29.738281 -49.546875 28.15625 -49.546875 C 26.570312 -49.546875 25.046875 -48.609375 23.578125 -46.734375 C 22.117188 -44.859375 20.785156 -42.351562 19.578125 -39.21875 C 18.367188 -36.09375 17.410156 -32.566406 16.703125 -28.640625 C 15.992188 -24.722656 15.640625 -20.765625 15.640625 -16.765625 Z M 15.640625 -16.765625 "/></g></g></g><g fill="#000000" fill-opacity="1"><g transform="translate(224.286168, 115.776821)"><g><path d="M 21.765625 35.40625 C 17.765625 35.40625 14.34375 34.007812 11.5 31.21875 C 8.664062 28.425781 6.351562 24.628906 4.5625 19.828125 C 2.769531 15.035156 1.457031 9.632812 0.625 3.625 C -0.207031 -2.375 -0.625 -8.546875 -0.625 -14.890625 C -0.625 -18.722656 -0.5 -22.5625 -0.25 -26.40625 L -0.5 -26.53125 C -1.75 -27.195312 -2.625 -28.09375 -3.125 -29.21875 C -3.625 -30.34375 -3.875 -31.28125 -3.875 -32.03125 C -3.875 -32.945312 -3.582031 -33.632812 -3 -34.09375 C -2.414062 -34.550781 -1.582031 -34.570312 -0.5 -34.15625 L 0.5 -33.78125 C 1.332031 -40.875 2.476562 -47.691406 3.9375 -54.234375 C 5.394531 -60.785156 7.0625 -66.769531 8.9375 -72.1875 C 10.820312 -77.613281 12.679688 -82.078125 14.515625 -85.578125 C 16.015625 -88.335938 17.847656 -90.363281 20.015625 -91.65625 C 22.179688 -92.945312 24.285156 -93.65625 26.328125 -93.78125 C 28.378906 -93.90625 29.988281 -93.613281 31.15625 -92.90625 C 32.320312 -92.195312 32.65625 -91.175781 32.15625 -89.84375 C 28.738281 -81.164062 25.585938 -72.03125 22.703125 -62.4375 C 19.828125 -52.84375 17.679688 -42.707031 16.265625 -32.03125 C 20.929688 -32.195312 24.660156 -32.863281 27.453125 -34.03125 C 30.253906 -35.195312 32.445312 -36.613281 34.03125 -38.28125 C 35.613281 -39.957031 36.820312 -41.628906 37.65625 -43.296875 C 38.664062 -45.210938 39.796875 -46.335938 41.046875 -46.671875 C 42.296875 -47.003906 43.273438 -46.648438 43.984375 -45.609375 C 44.691406 -44.566406 44.671875 -42.878906 43.921875 -40.546875 C 42.835938 -37.285156 41.25 -34.613281 39.15625 -32.53125 C 37.070312 -30.445312 34.757812 -28.84375 32.21875 -27.71875 C 29.675781 -26.59375 27.109375 -25.800781 24.515625 -25.34375 C 21.929688 -24.882812 19.597656 -24.65625 17.515625 -24.65625 C 22.191406 -19.726562 25.800781 -14.945312 28.34375 -10.3125 C 30.882812 -5.6875 32.65625 -1.125 33.65625 3.375 C 34.65625 7.882812 35.15625 12.390625 35.15625 16.890625 C 35.15625 20.640625 34.507812 23.910156 33.21875 26.703125 C 31.925781 29.503906 30.28125 31.65625 28.28125 33.15625 C 26.28125 34.65625 24.109375 35.40625 21.765625 35.40625 Z M 14.890625 -9.640625 C 14.890625 -3.378906 15.160156 2.375 15.703125 7.625 C 16.242188 12.882812 17.097656 17.097656 18.265625 20.265625 C 19.429688 23.441406 20.972656 25.03125 22.890625 25.03125 C 23.898438 25.03125 24.757812 24.316406 25.46875 22.890625 C 26.175781 21.472656 26.488281 19.765625 26.40625 17.765625 C 26.40625 13.097656 25.378906 8.007812 23.328125 2.5 C 21.285156 -3 18.472656 -8.128906 14.890625 -12.890625 Z M 14.890625 -9.640625 "/></g></g></g><g fill="#000000" fill-opacity="1"><g transform="translate(257.441074, 115.776821)"><g><path d="M 21.390625 0 C 16.054688 0 11.65625 -2.476562 8.1875 -7.4375 C 4.726562 -12.40625 3 -19.351562 3 -28.28125 C 3 -32.53125 3.476562 -37.84375 4.4375 -44.21875 C 5.394531 -50.601562 6.960938 -57.21875 9.140625 -64.0625 L 1.875 -64.0625 C -0.457031 -64.0625 -2.226562 -64.519531 -3.4375 -65.4375 C -4.644531 -66.351562 -5.25 -67.269531 -5.25 -68.1875 C -5.25 -68.851562 -5.019531 -69.476562 -4.5625 -70.0625 C -4.101562 -70.65625 -3.207031 -70.953125 -1.875 -70.953125 L 11.640625 -70.953125 C 12.140625 -72.285156 12.679688 -73.597656 13.265625 -74.890625 C 13.847656 -76.179688 14.429688 -77.453125 15.015625 -78.703125 C 16.097656 -80.953125 17.679688 -82.722656 19.765625 -84.015625 C 21.847656 -85.304688 23.890625 -86.140625 25.890625 -86.515625 C 27.898438 -86.898438 29.46875 -86.734375 30.59375 -86.015625 C 31.71875 -85.304688 31.90625 -84.078125 31.15625 -82.328125 C 30.320312 -80.328125 29.53125 -78.390625 28.78125 -76.515625 C 28.03125 -74.640625 27.320312 -72.785156 26.65625 -70.953125 L 40.171875 -70.953125 C 41.921875 -70.953125 42.960938 -70.40625 43.296875 -69.3125 C 43.628906 -68.226562 43.316406 -67.144531 42.359375 -66.0625 C 41.398438 -64.976562 39.75 -64.4375 37.40625 -64.4375 C 35.570312 -64.4375 33.570312 -64.4375 31.40625 -64.4375 C 29.238281 -64.4375 26.945312 -64.394531 24.53125 -64.3125 C 22.1875 -56.800781 20.742188 -50.039062 20.203125 -44.03125 C 19.660156 -38.03125 19.390625 -31.945312 19.390625 -25.78125 C 19.390625 -19.351562 19.992188 -14.910156 21.203125 -12.453125 C 22.410156 -9.992188 23.601562 -8.765625 24.78125 -8.765625 C 27.195312 -8.765625 29.65625 -11.722656 32.15625 -17.640625 C 34.65625 -23.566406 37.867188 -32.078125 41.796875 -43.171875 C 42.628906 -45.335938 43.671875 -46.546875 44.921875 -46.796875 C 46.171875 -47.046875 47.171875 -46.546875 47.921875 -45.296875 C 48.671875 -44.046875 48.671875 -42.296875 47.921875 -40.046875 C 46.171875 -34.785156 44.441406 -29.753906 42.734375 -24.953125 C 41.023438 -20.160156 39.144531 -15.882812 37.09375 -12.125 C 35.050781 -8.375 32.78125 -5.414062 30.28125 -3.25 C 27.78125 -1.082031 24.816406 0 21.390625 0 Z M 21.390625 0 "/></g></g></g><g fill="#000000" fill-opacity="1"><g transform="translate(294.59959, 115.776821)"><g><path d="M 19.765625 35.40625 C 16.179688 35.40625 13.367188 34.738281 11.328125 33.40625 C 9.285156 32.070312 7.800781 30.40625 6.875 28.40625 C 5.957031 26.40625 5.5 24.398438 5.5 22.390625 C 5.5 18.722656 6.6875 15.722656 9.0625 13.390625 C 11.445312 11.054688 14.617188 8.800781 18.578125 6.625 C 22.546875 4.457031 26.945312 1.875 31.78125 -1.125 L 32.65625 -7.890625 C 30.820312 -5.628906 28.671875 -3.75 26.203125 -2.25 C 23.742188 -0.75 21.304688 0 18.890625 0 C 13.472656 0.0820312 9.34375 -2.039062 6.5 -6.375 C 3.664062 -10.71875 2.164062 -16.179688 2 -22.765625 C 1.914062 -26.523438 2.144531 -30.507812 2.6875 -34.71875 C 3.226562 -38.9375 4.414062 -43.085938 6.25 -47.171875 C 7.34375 -49.671875 8.972656 -51.585938 11.140625 -52.921875 C 13.304688 -54.265625 15.472656 -55.082031 17.640625 -55.375 C 19.804688 -55.664062 21.515625 -55.453125 22.765625 -54.734375 C 24.023438 -54.023438 24.28125 -52.835938 23.53125 -51.171875 C 22.351562 -48.503906 21.390625 -45.394531 20.640625 -41.84375 C 19.890625 -38.300781 19.328125 -34.738281 18.953125 -31.15625 C 18.578125 -27.570312 18.347656 -24.359375 18.265625 -21.515625 C 18.265625 -17.679688 18.410156 -14.867188 18.703125 -13.078125 C 18.992188 -11.285156 19.410156 -10.117188 19.953125 -9.578125 C 20.492188 -9.035156 21.097656 -8.765625 21.765625 -8.765625 C 23.359375 -8.765625 24.78125 -9.785156 26.03125 -11.828125 C 27.28125 -13.867188 28.488281 -16.660156 29.65625 -20.203125 C 30.820312 -23.753906 32.03125 -27.84375 33.28125 -32.46875 C 34.53125 -37.101562 35.945312 -42.003906 37.53125 -47.171875 C 38.28125 -49.753906 39.675781 -51.753906 41.71875 -53.171875 C 43.769531 -54.597656 45.878906 -55.457031 48.046875 -55.75 C 50.210938 -56.039062 51.984375 -55.785156 53.359375 -54.984375 C 54.742188 -54.191406 55.226562 -52.921875 54.8125 -51.171875 C 53.21875 -45.421875 51.984375 -39.375 51.109375 -33.03125 C 50.234375 -26.695312 49.335938 -20.441406 48.421875 -14.265625 C 51.921875 -17.765625 55.359375 -21.847656 58.734375 -26.515625 C 62.117188 -31.191406 65.226562 -36.703125 68.0625 -43.046875 C 69.226562 -45.546875 70.394531 -46.816406 71.5625 -46.859375 C 72.738281 -46.898438 73.640625 -46.234375 74.265625 -44.859375 C 74.890625 -43.484375 74.828125 -41.878906 74.078125 -40.046875 C 70.566406 -31.035156 66.390625 -23.546875 61.546875 -17.578125 C 56.710938 -11.617188 51.753906 -6.632812 46.671875 -2.625 C 45.503906 4.46875 43.960938 10.890625 42.046875 16.640625 C 40.128906 22.398438 37.414062 26.96875 33.90625 30.34375 C 30.40625 33.71875 25.691406 35.40625 19.765625 35.40625 Z M 14.390625 22.390625 C 14.390625 23.566406 14.742188 24.550781 15.453125 25.34375 C 16.160156 26.132812 17.222656 26.53125 18.640625 26.53125 C 21.222656 26.53125 23.429688 24.859375 25.265625 21.515625 C 27.109375 18.179688 28.65625 13.847656 29.90625 8.515625 C 25.394531 11.097656 21.679688 13.410156 18.765625 15.453125 C 15.847656 17.492188 14.390625 19.804688 14.390625 22.390625 Z M 14.390625 22.390625 "/></g></g></g><g fill="#000000" fill-opacity="1"><g transform="translate(126.559377, 180.100225)"><g><path d="M 5.265625 0 L 2.015625 0 L 2.015625 -21.0625 L 10.484375 -21.0625 C 11.816406 -21.0625 12.984375 -20.84375 13.984375 -20.40625 C 14.984375 -19.976562 15.765625 -19.3125 16.328125 -18.40625 C 16.890625 -17.507812 17.171875 -16.351562 17.171875 -14.9375 C 17.171875 -13.625 16.890625 -12.5 16.328125 -11.5625 C 15.765625 -10.625 14.984375 -9.90625 13.984375 -9.40625 C 12.992188 -8.914062 11.828125 -8.671875 10.484375 -8.671875 L 5.265625 -8.671875 Z M 5.265625 -18.140625 L 5.265625 -11.515625 L 10.046875 -11.515625 C 11.296875 -11.515625 12.253906 -11.800781 12.921875 -12.375 C 13.597656 -12.957031 13.9375 -13.785156 13.9375 -14.859375 C 13.9375 -15.898438 13.597656 -16.707031 12.921875 -17.28125 C 12.253906 -17.851562 11.296875 -18.140625 10.046875 -18.140625 Z M 5.265625 -18.140625 "/></g></g></g><g fill="#000000" fill-opacity="1"><g transform="translate(162.445018, 180.100225)"><g><path d="M 14.46875 0 L 2.015625 0 L 2.015625 -21.0625 L 5.265625 -21.0625 L 5.265625 -2.921875 L 14.46875 -2.921875 Z M 14.46875 0 "/></g></g></g><g fill="#000000" fill-opacity="1"><g transform="translate(195.128564, 180.100225)"><g><path d="M 3.671875 0 L 0.28125 0 L 7.875 -21.0625 L 11.484375 -21.0625 L 19.078125 0 L 15.703125 0 L 14.078125 -4.75 L 5.296875 -4.75 Z M 9.6875 -17.609375 L 6.296875 -7.625 L 13.09375 -7.625 Z M 9.6875 -17.609375 "/></g></g></g><g fill="#000000" fill-opacity="1"><g transform="translate(232.366829, 180.100225)"><g><path d="M 5.265625 0 L 2.015625 0 L 2.015625 -21.0625 L 6.125 -21.0625 L 15.1875 -4.25 L 15.1875 -21.0625 L 18.421875 -21.0625 L 18.421875 0 L 14.328125 0 L 5.265625 -16.78125 Z M 5.265625 0 "/></g></g></g><g fill="#000000" fill-opacity="1"><g transform="translate(270.681673, 180.100225)"><g><path d="M 5.265625 0 L 2.015625 0 L 2.015625 -21.0625 L 6.125 -21.0625 L 15.1875 -4.25 L 15.1875 -21.0625 L 18.421875 -21.0625 L 18.421875 0 L 14.328125 0 L 5.265625 -16.78125 Z M 5.265625 0 "/></g></g></g><g fill="#000000" fill-opacity="1"><g transform="translate(308.996517, 180.100225)"><g><path d="M 15.875 0 L 2.015625 0 L 2.015625 -21.0625 L 15.875 -21.0625 L 15.875 -18.140625 L 5.265625 -18.140625 L 5.265625 -12.015625 L 14.6875 -12.015625 L 14.6875 -9.109375 L 5.265625 -9.109375 L 5.265625 -2.921875 L 15.875 -2.921875 Z M 15.875 0 "/></g></g></g><g fill="#000000" fill-opacity="1"><g transform="translate(343.916015, 180.100225)"><g><path d="M 13.640625 -9.25 L 17.5625 0 L 14.03125 0 L 10.484375 -8.671875 L 5.265625 -8.671875 L 5.265625 0 L 2.015625 0 L 2.015625 -21.0625 L 10.484375 -21.0625 C 11.816406 -21.0625 12.984375 -20.84375 13.984375 -20.40625 C 14.984375 -19.976562 15.765625 -19.3125 16.328125 -18.40625 C 16.890625 -17.507812 17.171875 -16.351562 17.171875 -14.9375 C 17.171875 -13.539062 16.851562 -12.359375 16.21875 -11.390625 C 15.582031 -10.421875 14.722656 -9.707031 13.640625 -9.25 Z M 5.265625 -18.140625 L 5.265625 -11.515625 L 10.046875 -11.515625 C 11.296875 -11.515625 12.253906 -11.800781 12.921875 -12.375 C 13.597656 -12.957031 13.9375 -13.785156 13.9375 -14.859375 C 13.9375 -15.898438 13.597656 -16.707031 12.921875 -17.28125 C 12.253906 -17.851562 11.296875 -18.140625 10.046875 -18.140625 Z M 5.265625 -18.140625 "/></g></g></g></svg>